<?xml version="1.0" standalone="no"?>
<!DOCTYPE svg PUBLIC "-//W3C//DTD SVG 20010904//EN"
 "http://www.w3.org/TR/2001/REC-SVG-20010904/DTD/svg10.dtd">
<svg version="1.0" xmlns="http://www.w3.org/2000/svg"
 width="444.000000pt" height="112.000000pt" viewBox="0 0 444.000000 112.000000"
 preserveAspectRatio="xMidYMid meet">

<g transform="translate(0.000000,112.000000) scale(0.100000,-0.100000)"
fill="#000000" stroke="none">
<path d="M625 1059 c-223 -15 -375 -50 -440 -100 -53 -42 -118 -213 -145 -379
-6 -41 -18 -89 -27 -107 -14 -30 -14 -36 10 -104 14 -42 27 -66 31 -58 3 8 5
5 2 -7 -6 -39 13 -211 28 -248 l15 -36 81 0 c80 0 80 0 100 33 11 17 20 37 20
42 -1 6 -10 -7 -21 -27 l-19 -38 -74 0 c-74 0 -74 0 -87 33 -10 22 -14 75 -14
167 0 111 3 141 18 168 25 45 55 40 81 -13 16 -31 20 -62 20 -141 1 -56 3
-100 5 -98 3 2 8 48 11 102 6 82 4 105 -12 149 -20 54 -57 93 -88 93 -27 0
-54 -38 -66 -93 l-11 -52 -15 50 c-13 40 -13 53 -3 65 7 8 16 38 19 65 24 178
100 385 156 425 95 68 331 100 729 100 398 0 473 -28 639 -232 37 -46 61 -68
76 -68 35 0 164 -39 216 -65 67 -34 90 -66 90 -126 0 -42 -4 -50 -31 -69 -16
-12 -28 -25 -24 -28 3 -3 18 4 34 16 34 25 51 14 51 -32 0 -40 -15 -65 -24
-41 -3 10 -15 15 -28 13 -19 -2 -23 -9 -23 -38 0 -26 5 -36 19 -38 11 -2 26 4
33 14 12 17 13 17 13 0 0 -35 -23 -105 -39 -120 -14 -12 -89 -15 -514 -17
-273 -1 -499 0 -501 2 -2 2 -16 29 -30 59 -15 30 -23 46 -20 35 3 -11 7 -27 8
-35 0 -8 5 -19 9 -25 4 -5 14 -19 22 -30 13 -19 28 -20 353 -25 381 -6 678 7
691 29 5 7 11 9 13 5 3 -5 4 -4 3 1 -2 6 4 39 11 75 15 73 18 176 5 184 -4 3
-11 33 -15 68 -5 51 -12 68 -37 94 -38 39 -103 67 -219 93 -73 17 -88 24 -110
52 -149 195 -215 236 -418 258 -117 12 -364 12 -557 0z m-474 -589 c22 -13 26
-32 4 -24 -27 11 -64 -24 -80 -74 l-15 -47 5 55 c9 86 37 116 86 90z"/>
<path d="M406 994 c-72 -13 -202 -61 -193 -71 3 -2 16 2 31 8 14 7 28 10 31 7
3 -3 -6 -31 -20 -63 -14 -31 -24 -59 -22 -61 2 -3 19 29 36 70 l33 74 66 13
c103 20 166 18 192 -6 27 -23 57 -88 70 -148 9 -42 9 -41 5 11 -7 88 -61 164
-125 176 -14 2 -61 -2 -104 -10z"/>
<path d="M1048 993 c45 -2 119 -2 165 0 45 1 8 3 -83 3 -91 0 -128 -2 -82 -3z"/>
<path d="M645 965 c4 -11 17 -60 30 -110 13 -49 29 -91 36 -94 8 -2 16 -7 19
-10 6 -8 113 -31 119 -26 1 2 -17 9 -40 15 -24 6 -52 15 -61 20 -10 6 -24 10
-31 10 -8 0 -17 25 -26 73 -6 39 -21 88 -32 107 -11 19 -17 26 -14 15z"/>
<path d="M437 960 c-25 -69 -58 -200 -62 -250 -4 -37 -2 -33 10 20 9 36 27
100 41 144 14 43 23 83 21 90 -3 7 -7 6 -10 -4z"/>
<path d="M166 863 c-3 -21 -8 -59 -12 -85 l-6 -48 108 0 c59 0 105 2 103 5 -3
2 -49 5 -102 6 -53 1 -97 4 -97 8 1 3 7 35 15 71 17 78 17 80 6 80 -5 0 -12
-17 -15 -37z"/>
<path d="M216 785 c-9 -26 -7 -32 5 -12 6 10 9 21 6 23 -2 3 -7 -2 -11 -11z"/>
<path d="M855 781 c-49 -3 41 -6 200 -6 202 -1 253 1 170 6 -141 7 -246 7
-370 0z"/>
<path d="M1378 763 c17 -2 47 -2 65 0 17 2 3 4 -33 4 -36 0 -50 -2 -32 -4z"/>
<path d="M631 694 c0 -11 3 -14 6 -6 3 7 2 16 -1 19 -3 4 -6 -2 -5 -13z"/>
<path d="M2103 669 c-51 -25 -73 -67 -73 -139 0 -100 46 -150 138 -150 71 0
82 6 82 45 0 33 0 33 -32 24 -48 -13 -66 -11 -88 11 -25 25 -27 105 -4 139 15
21 22 23 65 18 41 -5 50 -3 59 13 16 31 12 39 -27 49 -54 15 -73 14 -120 -10z"/>
<path d="M3573 669 c-51 -25 -73 -67 -73 -139 0 -100 46 -150 138 -150 71 0
82 6 82 45 0 33 0 33 -32 24 -48 -13 -66 -11 -88 11 -25 25 -27 105 -4 139 15
21 22 23 65 18 41 -5 50 -3 59 13 16 31 12 39 -27 49 -54 15 -73 14 -120 -10z"/>
<path d="M3291 587 c-37 -56 -61 -104 -61 -120 0 -26 1 -27 60 -27 l60 0 0
-30 c0 -28 2 -30 40 -30 38 0 40 2 40 30 0 20 5 30 15 30 10 0 15 10 15 30 0
20 -5 30 -15 30 -12 0 -15 17 -15 90 l0 90 -39 0 c-37 0 -40 -2 -100 -93z m59
-52 c0 -31 -3 -35 -25 -35 l-25 0 22 35 c13 19 24 35 26 35 1 0 2 -16 2 -35z"/>
<path d="M195 660 c-3 -5 1 -10 10 -10 9 0 13 5 10 10 -3 6 -8 10 -10 10 -2 0
-7 -4 -10 -10z"/>
<path d="M713 660 c-28 -11 -70 -84 -77 -135 l-6 -40 14 42 c47 143 122 162
187 48 17 -30 32 -55 34 -55 1 0 47 -9 100 -20 53 -11 105 -20 114 -19 17 1
-53 19 -152 39 -55 11 -59 14 -82 60 -26 51 -67 90 -94 89 -9 0 -26 -4 -38 -9z"/>
<path d="M362 625 c0 -16 2 -22 5 -12 2 9 2 23 0 30 -3 6 -5 -1 -5 -18z"/>
<path d="M390 640 c19 -13 30 -13 30 0 0 6 -10 10 -22 10 -19 0 -20 -2 -8 -10z"/>
<path d="M622 630 c0 -14 2 -19 5 -12 2 6 2 18 0 25 -3 6 -5 1 -5 -13z"/>
<path d="M973 623 c9 -2 25 -2 35 0 9 3 1 5 -18 5 -19 0 -27 -2 -17 -5z"/>
<path d="M1870 620 c-8 -5 -10 -10 -5 -10 6 0 17 5 25 10 8 5 11 10 5 10 -5 0
-17 -5 -25 -10z"/>
<path d="M1058 613 c12 -2 30 -2 40 0 9 3 -1 5 -23 4 -22 0 -30 -2 -17 -4z"/>
<path d="M1334 613 c-27 -5 -76 -109 -99 -208 -24 -105 -17 -99 19 15 27 89
57 162 73 180 2 2 92 7 201 10 l197 7 -185 0 c-102 0 -195 -2 -206 -4z"/>
<path d="M2406 599 c-23 -18 -27 -18 -32 -5 -4 10 -18 16 -35 16 l-29 0 0
-115 0 -115 40 0 40 0 0 64 c0 86 5 96 46 96 33 0 34 1 34 40 0 32 -4 40 -19
40 -10 0 -30 -9 -45 -21z"/>
<path d="M2553 609 c-29 -8 -31 -12 -22 -32 9 -19 18 -23 56 -23 61 1 68 -20
9 -26 -68 -8 -96 -30 -96 -77 0 -24 7 -44 18 -54 23 -21 81 -22 110 -1 20 14
23 14 28 0 4 -10 18 -16 36 -16 l30 0 -4 95 c-2 80 -6 98 -24 116 -25 25 -92
33 -141 18z m87 -138 c0 -24 -25 -45 -45 -37 -20 7 -19 33 3 45 26 16 42 13
42 -8z"/>
<path d="M3823 609 c-29 -8 -31 -12 -22 -32 9 -19 18 -23 56 -23 61 1 68 -20
9 -26 -68 -8 -96 -30 -96 -77 0 -24 7 -44 18 -54 23 -21 81 -22 110 -1 20 14
23 14 28 0 4 -10 18 -16 36 -16 l30 0 -4 95 c-2 80 -6 98 -24 116 -25 25 -92
33 -141 18z m87 -138 c0 -24 -25 -45 -45 -37 -20 7 -19 33 3 45 26 16 42 13
42 -8z"/>
<path d="M4153 608 c-13 -6 -23 -15 -23 -20 0 -4 -4 -8 -10 -8 -5 0 -10 7 -10
15 0 10 -11 15 -35 15 l-35 0 0 -115 0 -115 40 0 40 0 0 61 c0 75 12 99 49 99
24 0 30 5 35 31 3 17 6 35 6 40 0 12 -30 10 -57 -3z"/>
<path d="M4280 608 c-61 -33 -44 -104 31 -134 66 -27 32 -51 -43 -31 -26 7
-28 5 -28 -22 0 -35 13 -41 86 -41 65 0 94 22 94 73 0 38 -20 61 -68 78 -53
18 -38 45 17 29 26 -7 33 -6 42 12 7 12 7 24 2 29 -17 17 -106 21 -133 7z"/>
<path d="M1148 603 c6 -2 18 -2 25 0 6 3 1 5 -13 5 -14 0 -19 -2 -12 -5z"/>
<path d="M1747 603 c12 -2 25 -13 28 -24 4 -11 9 -18 12 -16 11 12 -19 47 -40
46 l-22 -2 22 -4z"/>
<path d="M1823 602 c-9 -5 -7 -16 8 -40 18 -27 26 -31 54 -29 18 1 31 6 28 10
-3 5 -15 6 -26 3 -36 -9 -77 44 -44 57 6 3 8 6 2 6 -5 0 -15 -3 -22 -7z"/>
<path d="M2760 585 c0 -23 4 -25 45 -25 25 0 45 -3 45 -6 0 -3 -20 -32 -45
-64 -27 -35 -45 -69 -45 -84 l0 -26 95 0 95 0 0 30 c0 29 -1 30 -51 30 l-50 0
45 59 c27 35 46 70 46 85 l0 26 -90 0 c-89 0 -90 0 -90 -25z"/>
<path d="M2970 605 c0 -3 20 -54 44 -114 40 -99 42 -112 29 -130 -8 -12 -23
-21 -34 -21 -14 0 -19 -7 -19 -30 0 -27 3 -30 33 -30 63 0 84 27 141 182 19
51 39 106 45 121 l11 28 -42 -3 -41 -3 -22 -75 c-16 -53 -24 -69 -28 -55 -3
11 -13 46 -22 78 -16 57 -16 57 -56 57 -21 0 -39 -2 -39 -5z"/>
<path d="M121 584 c-19 -14 -51 -63 -51 -80 0 -4 14 12 30 34 17 23 37 42 45
42 21 0 52 -54 75 -130 51 -175 49 -169 44 -125 -10 68 -44 190 -64 223 -27
43 -52 55 -79 36z"/>
<path d="M891 568 c0 -9 5 -20 12 -25 6 -4 76 -8 153 -9 l142 -2 11 27 c10 24
10 25 -4 7 -13 -17 -30 -20 -127 -21 -138 -3 -176 2 -181 24 -4 14 -5 14 -6
-1z"/>
<path d="M1793 540 c4 -13 -27 -15 -245 -12 -170 2 -248 -1 -243 -8 4 -6 91
-10 244 -10 l239 0 10 -40 10 -40 -52 -2 -51 -2 48 -3 c48 -4 77 8 77 31 0 6
-5 4 -11 -4 -7 -11 -8 -6 -4 19 5 23 4 31 -4 27 -7 -4 -9 -1 -5 8 3 8 0 23 -6
33 -7 11 -10 12 -7 3z"/>
<path d="M770 515 c13 -14 26 -25 28 -25 3 0 -5 11 -18 25 -13 14 -26 25 -28
25 -3 0 5 -11 18 -25z"/>
<path d="M622 460 c0 -14 2 -19 5 -12 2 6 2 18 0 25 -3 6 -5 1 -5 -13z"/>
<path d="M1108 473 c7 -3 16 -2 19 1 4 3 -2 6 -13 5 -11 0 -14 -3 -6 -6z"/>
<path d="M675 430 c-49 -31 -78 -92 -77 -164 0 -87 28 -180 68 -223 l33 -35
123 7 c133 8 165 18 197 64 31 43 26 42 -24 -6 -36 -34 -53 -43 -81 -43 l-36
0 30 25 c27 23 61 109 48 122 -3 3 -8 -8 -12 -23 -22 -92 -66 -124 -172 -124
-66 0 -75 3 -97 26 -30 33 -54 103 -62 181 -8 80 14 141 65 183 42 34 41 38
-3 10z"/>
<path d="M1005 406 c-30 -45 16 -91 61 -61 29 19 32 60 5 75 -31 16 -49 12
-66 -14z"/>
<path d="M1831 404 c0 -11 3 -14 6 -6 3 7 2 16 -1 19 -3 4 -6 -2 -5 -13z"/>
<path d="M827 396 c-5 -12 -3 -15 5 -10 7 5 9 2 6 -7 -3 -8 1 -20 9 -28 13
-12 14 -11 8 10 -13 44 -21 53 -28 35z"/>
<path d="M232 290 c0 -14 2 -19 5 -12 2 6 2 18 0 25 -3 6 -5 1 -5 -13z"/>
<path d="M1168 303 c139 -2 364 -2 500 0 136 1 22 2 -253 2 -275 0 -386 -1
-247 -2z"/>
<path d="M310 260 c-33 -5 -15 -7 65 -8 61 0 130 3 155 7 58 11 -153 11 -220
1z"/>
<path d="M241 244 c0 -11 3 -14 6 -6 3 7 2 16 -1 19 -3 4 -6 -2 -5 -13z"/>
<path d="M745 180 c-3 -6 1 -7 9 -4 18 7 21 14 7 14 -6 0 -13 -4 -16 -10z"/>
<path d="M886 143 c-6 -14 -5 -15 5 -6 7 7 10 15 7 18 -3 3 -9 -2 -12 -12z"/>
<path d="M181 103 c-10 -26 -10 -27 4 -9 8 11 15 23 15 28 0 15 -7 8 -19 -19z"/>
<path d="M1550 104 c0 -7 9 -22 20 -35 25 -31 26 -12 0 21 -11 14 -20 20 -20
14z"/>
</g>
</svg>
